<svg width="25" height="25" viewBox="0 0 25 25" fill="none" xmlns="http://www.w3.org/2000/svg">
<path d="M5.9375 6.98958C5.84093 7.08595 5.76432 7.20041 5.71205 7.32643C5.65978 7.45244 5.63287 7.58753 5.63287 7.72395C5.63287 7.86038 5.65978 7.99546 5.71205 8.12148C5.76432 8.24749 5.84093 8.36196 5.9375 8.45833L9.97917 12.5L5.9375 16.5417C5.84106 16.6381 5.76456 16.7526 5.71237 16.8786C5.66018 17.0046 5.63331 17.1397 5.63331 17.276C5.63331 17.4124 5.66018 17.5475 5.71237 17.6735C5.76456 17.7995 5.84106 17.914 5.9375 18.0104C6.03394 18.1069 6.14843 18.1834 6.27444 18.2355C6.40044 18.2877 6.53549 18.3146 6.67188 18.3146C6.80826 18.3146 6.94331 18.2877 7.06932 18.2355C7.19532 18.1834 7.30981 18.1069 7.40625 18.0104L12.1875 13.2292C12.2841 13.1328 12.3607 13.0183 12.413 12.8923C12.4652 12.7663 12.4921 12.6312 12.4921 12.4948C12.4921 12.3584 12.4652 12.2233 12.413 12.0973C12.3607 11.9712 12.2841 11.8568 12.1875 11.7604L7.41667 6.98958C7.01042 6.58333 6.34375 6.58333 5.9375 6.98958Z" fill="#2CAEE2"/>
<path d="M12.8021 6.98958C12.7055 7.08595 12.6289 7.20042 12.5766 7.32643C12.5244 7.45244 12.4975 7.58753 12.4975 7.72396C12.4975 7.86038 12.5244 7.99547 12.5766 8.12148C12.6289 8.24749 12.7055 8.36196 12.8021 8.45833L16.8438 12.5L12.8021 16.5417C12.6073 16.7364 12.4979 17.0006 12.4979 17.276C12.4979 17.5515 12.6073 17.8156 12.8021 18.0104C12.9969 18.2052 13.261 18.3146 13.5365 18.3146C13.8119 18.3146 14.0761 18.2052 14.2708 18.0104L19.0521 13.2292C19.1486 13.1328 19.2253 13.0183 19.2775 12.8923C19.3298 12.7663 19.3567 12.6312 19.3567 12.4948C19.3567 12.3584 19.3298 12.2233 19.2775 12.0973C19.2253 11.9712 19.1486 11.8568 19.0521 11.7604L14.2708 6.97916C13.875 6.58333 13.2083 6.58333 12.8021 6.98958Z" fill="#2CAEE2"/>
</svg>
