<svg width="74" height="74" viewBox="0 0 74 74" fill="none" xmlns="http://www.w3.org/2000/svg">
<path fill-rule="evenodd" clip-rule="evenodd" d="M52.4167 24.6667C52.4167 33.1813 45.5146 40.0833 37 40.0833C28.4854 40.0833 21.5833 33.1813 21.5833 24.6667C21.5833 16.152 28.4854 9.25 37 9.25C45.5146 9.25 52.4167 16.152 52.4167 24.6667ZM49.3333 24.6667C49.3333 27.9377 48.0339 31.0747 45.721 33.3877C43.408 35.7006 40.271 37 37 37C33.729 37 30.592 35.7006 28.279 33.3877C25.9661 31.0747 24.6667 27.9377 24.6667 24.6667C24.6667 21.3957 25.9661 18.2586 28.279 15.9457C30.592 13.6327 33.729 12.3333 37 12.3333C40.271 12.3333 43.408 13.6327 45.721 15.9457C48.0339 18.2586 49.3333 21.3957 49.3333 24.6667V24.6667Z" fill="#2CAEE2"/>
<path fill-rule="evenodd" clip-rule="evenodd" d="M27.6174 44.4848L27.6344 44.5187L27.75 44.7453H45.863C46.2161 44.0762 47.0162 43.0094 47.7917 43.1867C49.5337 43.5829 51.2882 44.1348 52.9732 44.8147L53.0241 44.79L53.041 44.824L53.0534 44.8471C59.3973 47.4247 64.75 51.7938 64.75 56.3787V64.75H9.25V56.3787C9.25 50.559 17.8772 45.083 26.2083 43.1867C26.8882 43.0325 27.2921 43.8342 27.6174 44.4848V44.4848ZM50.4187 47.1488C49.7573 46.9173 49.0884 46.708 48.413 46.5213L47.7254 47.8287H25.8892L25.251 46.6154L24.696 46.7819C24.6852 46.8836 24.6759 46.9977 24.6713 47.1272C24.6513 47.6591 24.6913 48.2896 24.7792 48.931C24.8694 49.5998 25.0138 50.2603 25.2109 50.9058C26.2938 51.0341 27.2966 51.541 28.0422 52.3369C28.7877 53.1328 29.228 54.1666 29.2853 55.2556C29.3427 56.3446 29.0133 57.4189 28.3555 58.2887C27.6976 59.1585 26.7535 59.7678 25.69 60.0091C24.6265 60.2504 23.5119 60.1081 22.5432 59.6074C21.5744 59.1066 20.8137 58.2797 20.3954 57.2725C19.9772 56.2654 19.9282 55.1428 20.2573 54.1031C20.5864 53.0634 21.2723 52.1734 22.1938 51.5903L22.1815 51.5472C21.9761 50.8264 21.823 50.0916 21.7236 49.3487C21.6582 48.8741 21.615 48.3967 21.5941 47.9181C19.6886 48.7321 17.9111 49.7157 16.4218 50.801C13.4588 52.9655 12.3333 54.9882 12.3333 56.3787V61.6667H61.6667V56.3787C61.6667 54.9866 60.5412 52.964 57.5782 50.8025C56.2862 49.8735 54.9101 49.0673 53.4681 48.3945C53.4054 49.23 53.2775 50.0594 53.0857 50.875H53.9583C54.2446 50.8751 54.5251 50.955 54.7685 51.1056C55.0119 51.2561 55.2086 51.4715 55.3366 51.7275L56.8783 54.8109C56.9862 55.0252 57.0417 55.261 57.0417 55.5V58.5833C57.0417 58.9922 56.8792 59.3843 56.5901 59.6735C56.301 59.9626 55.9089 60.125 55.5 60.125H52.4167V57.0417H53.9583V55.8638L53.0056 53.9583H48.7444L47.7917 55.8638V57.0417H49.3333V60.125H46.25C45.8411 60.125 45.449 59.9626 45.1599 59.6735C44.8708 59.3843 44.7083 58.9922 44.7083 58.5833V55.5C44.7083 55.261 44.7638 55.0252 44.8718 54.8109L46.4134 51.7275C46.5414 51.4715 46.7381 51.2561 46.9815 51.1056C47.2249 50.955 47.5054 50.8751 47.7917 50.875H49.8914C49.9099 50.8133 49.93 50.7517 49.9485 50.6838C50.0934 50.189 50.2229 49.5738 50.3107 48.9325C50.3971 48.2973 50.4372 47.676 50.4187 47.1488V47.1488ZM26.2083 55.5C26.2083 56.3849 25.4961 57.0648 24.6667 57.0648C23.8372 57.0648 23.125 56.3865 23.125 55.5C23.125 54.6151 23.8372 53.9352 24.6667 53.9352C25.4961 53.9352 26.2083 54.6135 26.2083 55.5Z" fill="#2CAEE2"/>
</svg>
