<svg width="36" height="56" viewBox="0 0 36 56" fill="none" xmlns="http://www.w3.org/2000/svg">
<g clip-path="url(#clip0_2_410)">
<path d="M6.57008 23.2226C6.57008 21.4849 6.57008 19.8876 6.57008 18.2902C6.57008 15.9966 6.51768 13.7001 6.59627 11.4095C6.69525 8.59804 8.79115 6.56482 11.4576 6.56189C14.1241 6.55897 16.2287 8.57756 16.3277 11.3948C16.415 13.7586 16.3539 16.1283 16.3597 18.495V19.9344C19.3492 19.4429 21.5529 20.3761 22.7143 23.325C25.7825 22.582 28.0123 23.6176 29.1854 26.4378C30.0738 26.3905 30.9642 26.3964 31.8519 26.4553C33.7906 26.6923 35.6623 28.3452 35.7671 30.2907C35.9913 34.5707 36.3668 38.8887 35.1355 43.0956C32.7717 51.1817 24.8888 56.626 16.6158 55.9386C8.17402 55.2364 1.0858 48.6248 0.259085 40.1906C-0.148451 36.0042 0.0203855 31.7505 0.133913 27.529C0.203777 24.8112 2.63153 22.9038 5.32709 23.1027C5.68223 23.129 6.03446 23.17 6.57008 23.2226ZM6.57008 39.4329V38.0228C6.57008 34.7403 6.57007 31.4609 6.55552 28.1814C6.55552 27.0433 5.90346 26.3793 4.94575 26.3763C3.98804 26.3734 3.33598 27.0404 3.33307 28.1755C3.33307 31.7827 3.21954 35.3986 3.41458 38.9999C3.81047 46.2668 9.79543 52.2085 16.9826 52.6737C24.3357 53.1505 31.1096 48.0426 32.2798 40.764C32.7805 37.6337 32.5709 34.3776 32.6058 31.1771C32.6058 30.2497 31.9945 29.7143 31.0659 29.6675C30.1373 29.6207 29.5144 30.2351 29.4241 31.2005C29.3746 31.73 29.4241 32.2683 29.4241 32.8154H26.1347V28.237C26.1347 27.4441 25.8815 26.7918 25.1013 26.4816C23.9922 26.0399 22.9443 26.7976 22.9035 28.117C22.857 29.6704 22.9035 31.2297 22.9035 32.8154H19.6083C19.6083 30.2087 19.6083 27.6987 19.6083 25.1886C19.6083 23.8048 19.0028 23.0705 17.952 23.0939C16.9011 23.1173 16.3742 23.8253 16.3655 25.1418C16.3655 27.3271 16.3655 29.53 16.3655 31.7007C16.3655 32.084 16.3247 32.4643 16.3073 32.8124H13.1052V31.4258C13.1052 25.0482 13.1052 18.6706 13.1052 12.293C13.1052 10.6254 12.5667 9.82383 11.4663 9.83846C10.366 9.85308 9.85656 10.6254 9.85656 12.3251V39.4416L6.57008 39.4329Z" fill="#2CAEE2"/>
<path d="M0.174642 11.4826C-0.288202 5.57305 5.14367 0.0730973 11.2916 -4.0273e-05C17.6288 -0.0644014 23.1248 5.33023 22.7638 11.4709C21.8525 11.5045 20.9401 11.4898 20.0304 11.427C19.8354 11.4065 19.5937 10.8419 19.553 10.5201C19.0872 6.82516 16.4004 4.01375 12.6656 3.36722C10.9716 3.11013 9.24008 3.40199 7.7222 4.20049C6.20432 4.99898 4.97897 6.26261 4.2238 7.80813C3.79589 8.70626 3.60959 9.73604 3.40291 10.7336C3.29812 11.2368 3.19041 11.5323 2.60822 11.503C1.8077 11.4562 1.01591 11.4826 0.174642 11.4826Z" fill="#2CAEE2"/>
</g>
<defs>
<clipPath id="clip0_2_410">
<rect width="36" height="56" fill="white"/>
</clipPath>
</defs>
</svg>
