<svg width="16" height="16" viewBox="0 0 16 16" fill="none" xmlns="http://www.w3.org/2000/svg">
<path fill-rule="evenodd" clip-rule="evenodd" d="M0.666664 1.89208C0.666664 1.5671 0.795762 1.25544 1.02556 1.02564C1.25535 0.795847 1.56702 0.66675 1.892 0.66675H14.1067C14.2677 0.666487 14.4272 0.697992 14.5761 0.759461C14.7249 0.82093 14.8602 0.911156 14.9742 1.02497C15.0881 1.13879 15.1785 1.27397 15.2401 1.42276C15.3017 1.57155 15.3334 1.73103 15.3333 1.89208V14.1067C15.3335 14.2678 15.3019 14.4274 15.2404 14.5762C15.1788 14.7251 15.0885 14.8604 14.9747 14.9743C14.8608 15.0882 14.7256 15.1786 14.5768 15.2402C14.4279 15.3018 14.2684 15.3335 14.1073 15.3334H1.892C1.73103 15.3334 1.57164 15.3017 1.42293 15.2401C1.27422 15.1785 1.13911 15.0881 1.02532 14.9743C0.911529 14.8604 0.821285 14.7253 0.759746 14.5765C0.698206 14.4278 0.666577 14.2684 0.666664 14.1074V1.89208ZM6.472 6.25875H8.458V7.25608C8.74466 6.68275 9.478 6.16675 10.58 6.16675C12.6927 6.16675 13.1933 7.30875 13.1933 9.40408V13.2854H11.0553V9.88142C11.0553 8.68808 10.7687 8.01475 10.0407 8.01475C9.03066 8.01475 8.61066 8.74075 8.61066 9.88142V13.2854H6.472V6.25875ZM2.80533 13.1941H4.944V6.16675H2.80533V13.1934V13.1941ZM5.25 3.87475C5.25403 4.05786 5.22145 4.23994 5.15416 4.41029C5.08687 4.58064 4.98623 4.73584 4.85815 4.86677C4.73007 4.9977 4.57713 5.10173 4.4083 5.17275C4.23947 5.24378 4.05816 5.28036 3.875 5.28036C3.69184 5.28036 3.51052 5.24378 3.34169 5.17275C3.17287 5.10173 3.01992 4.9977 2.89184 4.86677C2.76376 4.73584 2.66313 4.58064 2.59584 4.41029C2.52855 4.23994 2.49597 4.05786 2.5 3.87475C2.50791 3.51532 2.65625 3.17328 2.91325 2.92187C3.17025 2.67047 3.51548 2.52969 3.875 2.52969C4.23451 2.52969 4.57974 2.67047 4.83674 2.92187C5.09374 3.17328 5.24208 3.51532 5.25 3.87475Z" fill="#2CAEE2"/>
</svg>
