<svg width="40" height="41" viewBox="0 0 40 41" fill="none" xmlns="http://www.w3.org/2000/svg">
<circle cx="20" cy="20.5916" r="20" fill="#2CAEE2"/>
<path d="M20 22.5C19.2583 22.5 18.5333 22.2801 17.9166 21.868C17.2999 21.456 16.8193 20.8703 16.5355 20.1851C16.2516 19.4998 16.1774 18.7458 16.3221 18.0184C16.4668 17.291 16.8239 16.6228 17.3484 16.0984C17.8728 15.5739 18.541 15.2168 19.2684 15.0721C19.9958 14.9274 20.7498 15.0016 21.4351 15.2855C22.1203 15.5693 22.706 16.0499 23.118 16.6666C23.5301 17.2833 23.75 18.0083 23.75 18.75C23.7488 19.7442 23.3533 20.6973 22.6503 21.4003C21.9473 22.1033 20.9942 22.4988 20 22.5ZM20 16.5C19.555 16.5 19.12 16.632 18.75 16.8792C18.38 17.1264 18.0916 17.4778 17.9213 17.889C17.751 18.3001 17.7064 18.7525 17.7932 19.189C17.8801 19.6254 18.0943 20.0263 18.409 20.341C18.7237 20.6557 19.1246 20.87 19.561 20.9568C19.9975 21.0436 20.4499 20.999 20.861 20.8287C21.2722 20.6584 21.6236 20.37 21.8708 20C22.118 19.63 22.25 19.195 22.25 18.75C22.2494 18.1534 22.0122 17.5815 21.5903 17.1597C21.1685 16.7378 20.5966 16.5006 20 16.5Z" fill="white"/>
<path d="M20 31.5L13.673 24.0382C13.5851 23.9262 13.4981 23.8135 13.412 23.7C12.3312 22.2763 11.7474 20.5374 11.75 18.75C11.75 16.562 12.6192 14.4635 14.1664 12.9164C15.7135 11.3692 17.812 10.5 20 10.5C22.188 10.5 24.2864 11.3692 25.8336 12.9164C27.3808 14.4635 28.25 16.562 28.25 18.75C28.2526 20.5366 27.669 22.2747 26.5887 23.6978L26.588 23.7C26.588 23.7 26.363 23.9955 26.3292 24.0353L20 31.5ZM14.609 22.7963C14.6105 22.7963 14.7845 23.0272 14.8242 23.0767L20 29.181L25.1825 23.0685C25.2155 23.0272 25.391 22.7948 25.3917 22.794C26.2746 21.6308 26.7517 20.2103 26.75 18.75C26.75 16.9598 26.0388 15.2429 24.773 13.977C23.5071 12.7112 21.7902 12 20 12C18.2098 12 16.4929 12.7112 15.227 13.977C13.9612 15.2429 13.25 16.9598 13.25 18.75C13.2484 20.2112 13.7261 21.6326 14.6097 22.7963H14.609Z" fill="white"/>
</svg>
