<svg width="16" height="16" viewBox="0 0 16 16" fill="none" xmlns="http://www.w3.org/2000/svg">
<path d="M6.76442 9.17322C7.69219 10.1144 8.81477 10.841 10.0533 11.3021L11.7289 9.96877C11.7785 9.93456 11.8374 9.91625 11.8978 9.91625C11.9581 9.91625 12.017 9.93456 12.0666 9.96877L15.1778 11.9732C15.2959 12.0442 15.3958 12.1417 15.4698 12.258C15.5438 12.3743 15.5897 12.5062 15.6039 12.6433C15.6181 12.7803 15.6003 12.9189 15.5518 13.0479C15.5033 13.1768 15.4254 13.2928 15.3244 13.3866L13.8666 14.8266C13.6579 15.0328 13.4013 15.1842 13.1198 15.2672C12.8383 15.3502 12.5406 15.3622 12.2533 15.3021C9.38763 14.7102 6.74626 13.3241 4.63109 11.3021C2.56286 9.25999 1.13165 6.66159 0.511088 3.82211C0.449784 3.53928 0.462579 3.24541 0.548233 2.96898C0.633887 2.69256 0.789495 2.44294 0.999977 2.24433L2.51109 0.786551C2.6046 0.690456 2.71864 0.616762 2.84467 0.570985C2.97069 0.525209 3.10544 0.508537 3.23883 0.522217C3.37221 0.535897 3.50077 0.579576 3.61488 0.649982C3.72899 0.720388 3.8257 0.815697 3.89776 0.928773L5.96887 3.99988C6.00459 4.04811 6.02387 4.10654 6.02387 4.16655C6.02387 4.22657 6.00459 4.28499 5.96887 4.33322L4.60442 5.97322C5.07801 7.18697 5.81586 8.28007 6.76442 9.17322Z" fill="#2CAEE2"/>
</svg>
