<svg width="55" height="55" viewBox="0 0 55 55" fill="none" xmlns="http://www.w3.org/2000/svg">
<path d="M27.5 51.5625C22.7409 51.5625 18.0887 50.1513 14.1316 47.5072C10.1745 44.8632 7.09039 41.1052 5.26916 36.7083C3.44793 32.3115 2.97141 27.4733 3.89986 22.8057C4.82832 18.138 7.12005 13.8505 10.4853 10.4853C13.8505 7.12005 18.138 4.82832 22.8057 3.89986C27.4733 2.97141 32.3115 3.44793 36.7083 5.26916C41.1052 7.09039 44.8632 10.1745 47.5072 14.1316C50.1513 18.0887 51.5625 22.7409 51.5625 27.5C51.5625 33.8818 49.0274 40.0022 44.5148 44.5148C40.0022 49.0274 33.8818 51.5625 27.5 51.5625ZM27.5 6.87501C23.4208 6.87501 19.4331 8.08465 16.0414 10.3509C12.6496 12.6173 10.0061 15.8384 8.44499 19.6072C6.88394 23.3759 6.47549 27.5229 7.27131 31.5237C8.06713 35.5246 10.0315 39.1996 12.9159 42.0841C15.8004 44.9685 19.4754 46.9329 23.4763 47.7287C27.4771 48.5245 31.6241 48.1161 35.3929 46.555C39.1616 44.994 42.3828 42.3504 44.6491 38.9586C46.9154 35.5669 48.125 31.5792 48.125 27.5C48.125 22.0299 45.952 16.7839 42.0841 12.9159C38.2161 9.048 32.9701 6.87501 27.5 6.87501Z" fill="#2CAEE2"/>
<path d="M35.3891 37.8125L25.7812 28.2047V12.0312H29.2188V26.7781L37.8125 35.3891L35.3891 37.8125Z" fill="#2CAEE2"/>
</svg>
