<svg width="55" height="55" viewBox="0 0 55 55" fill="none" xmlns="http://www.w3.org/2000/svg">
<g clip-path="url(#clip0_2_431)">
<path d="M27.7372 3.11545e-05C28.6378 3.11545e-05 29.5247 0.0584686 30.3497 0.195969C31.1622 0.302437 31.9639 0.479566 32.7456 0.725343C33.5294 0.962531 34.296 1.25816 35.0625 1.62941C35.8085 1.98347 36.575 2.41659 37.3416 2.88753C38.6375 3.71253 39.9128 4.37941 41.2122 4.91222C43.7702 5.93602 46.4751 6.54523 49.225 6.7169C50.6206 6.81659 52.0541 6.87503 53.546 6.87503V20.625C53.546 23.2375 53.2125 25.7125 52.5456 28.0707C51.9051 30.3951 50.9948 32.6367 49.8335 34.7497C48.677 36.8598 47.3087 38.8466 45.7497 40.6794C44.1668 42.5539 42.4529 44.3137 40.621 45.9456C38.7648 47.5824 36.8097 49.1035 34.7669 50.5003C32.725 51.9166 30.6625 53.2331 28.6 54.4294L27.775 54.921L26.95 54.4294C24.8298 53.2019 22.7588 51.8912 20.7419 50.5003C18.6876 49.1192 16.7316 47.5973 14.8878 45.9456C13.057 44.3137 11.3442 42.5538 9.76252 40.6794C8.20771 38.8388 6.83328 36.8531 5.65814 34.7497C4.51666 32.6273 3.60734 30.388 2.94595 28.0707C2.27485 25.6463 1.94398 23.1405 1.96283 20.625V6.87503C3.45814 6.87503 4.89158 6.81659 6.2872 6.7169C7.66104 6.62148 9.02598 6.42501 10.371 6.12909C11.6875 5.83347 13.0041 5.44159 14.3 4.91222C15.6448 4.36949 16.9341 3.69836 18.15 2.90816C19.6625 1.92503 21.1956 1.19972 22.7081 0.721906C24.3371 0.222546 26.0336 -0.0209772 27.7372 3.11545e-05V3.11545e-05ZM50.0878 10.2541C47.4857 10.1278 44.9079 9.69281 42.4085 8.95815C39.9223 8.21653 37.5542 7.12508 35.3753 5.71659C34.2452 4.97477 33.0178 4.39289 31.7281 3.98753C30.4399 3.59818 29.1002 3.4058 27.7544 3.41691C26.3986 3.40814 25.0491 3.60044 23.7497 3.98753C22.4581 4.37972 21.2323 4.96249 20.1128 5.71659C17.9302 7.13276 15.556 8.229 13.0625 8.9719C10.6253 9.68003 8.0747 10.1132 5.40033 10.2713V20.6422C5.40033 22.9213 5.69595 25.1007 6.2872 27.201C6.88954 29.283 7.71956 31.2923 8.7622 33.1925C9.81734 35.1125 11.061 36.9227 12.4747 38.5963C13.9081 40.2841 15.4378 41.855 17.0878 43.3469C18.7378 44.8422 20.4669 46.2172 22.275 47.4925C24.1003 48.7713 25.9291 49.9297 27.7544 50.9885C29.6234 49.9004 31.4458 48.734 33.2166 47.4925C35.0366 46.2212 36.7749 44.8366 38.421 43.3469C40.071 41.855 41.6041 40.2841 43.0375 38.5963C44.4514 36.9228 45.695 35.1126 46.75 33.1925C47.788 31.2947 48.6057 29.2845 49.1872 27.201C49.7964 25.0684 50.0997 22.8601 50.0878 20.6422V10.2541V10.2541Z" fill="#2CAEE2"/>
<path fill-rule="evenodd" clip-rule="evenodd" d="M40.5522 16.1873L39.0397 14.8879L37.6441 15.0083L22.6566 32.7045L17.5519 25.417L16.1769 25.1832L14.5853 26.3211L14.3481 27.6961L20.9103 37.0667L21.6562 37.4792L23.2272 37.5754L24.0316 37.2248L40.6519 17.5795L40.5522 16.1873Z" fill="#2CAEE2"/>
</g>
<defs>
<clipPath id="clip0_2_431">
<rect width="55" height="55" fill="white"/>
</clipPath>
</defs>
</svg>
