<svg width="18" height="18" viewBox="0 0 18 18" fill="none" xmlns="http://www.w3.org/2000/svg">
<path d="M12.6334 10.6667C12.7 10.1167 12.75 9.56675 12.75 9.00008C12.75 8.43341 12.7 7.88342 12.6334 7.33342H15.45C15.5834 7.86675 15.6667 8.42508 15.6667 9.00008C15.6667 9.57508 15.5834 10.1334 15.45 10.6667H12.6334ZM11.1584 15.3001C11.6584 14.3751 12.0417 13.3751 12.3084 12.3334H14.7667C13.9593 13.7236 12.6784 14.7767 11.1584 15.3001ZM10.95 10.6667H7.05002C6.96669 10.1167 6.91669 9.56675 6.91669 9.00008C6.91669 8.43341 6.96669 7.87508 7.05002 7.33342H10.95C11.025 7.87508 11.0834 8.43341 11.0834 9.00008C11.0834 9.56675 11.025 10.1167 10.95 10.6667ZM9.00002 15.6334C8.30835 14.6334 7.75002 13.5251 7.40835 12.3334H10.5917C10.25 13.5251 9.69169 14.6334 9.00002 15.6334ZM5.66669 5.66675H3.23335C4.0324 4.27276 5.31235 3.21799 6.83335 2.70008C6.33335 3.62508 5.95835 4.62508 5.66669 5.66675ZM3.23335 12.3334H5.66669C5.95835 13.3751 6.33335 14.3751 6.83335 15.3001C5.31554 14.7765 4.03739 13.7232 3.23335 12.3334ZM2.55002 10.6667C2.41669 10.1334 2.33335 9.57508 2.33335 9.00008C2.33335 8.42508 2.41669 7.86675 2.55002 7.33342H5.36669C5.30002 7.88342 5.25002 8.43341 5.25002 9.00008C5.25002 9.56675 5.30002 10.1167 5.36669 10.6667H2.55002ZM9.00002 2.35842C9.69169 3.35842 10.25 4.47508 10.5917 5.66675H7.40835C7.75002 4.47508 8.30835 3.35842 9.00002 2.35842ZM14.7667 5.66675H12.3084C12.0475 4.63463 11.6613 3.63833 11.1584 2.70008C12.6917 3.22508 13.9667 4.28341 14.7667 5.66675ZM9.00002 0.666748C4.39169 0.666748 0.666687 4.41675 0.666687 9.00008C0.666687 11.2102 1.54466 13.3298 3.10746 14.8926C3.88129 15.6665 4.79994 16.2803 5.81099 16.6991C6.82204 17.1179 7.90567 17.3334 9.00002 17.3334C11.2102 17.3334 13.3298 16.4554 14.8926 14.8926C16.4554 13.3298 17.3334 11.2102 17.3334 9.00008C17.3334 7.90573 17.1178 6.8221 16.699 5.81105C16.2802 4.80001 15.6664 3.88135 14.8926 3.10752C14.1188 2.3337 13.2001 1.71987 12.189 1.30109C11.178 0.882296 10.0944 0.666748 9.00002 0.666748Z" fill="#2CAEE2"/>
</svg>
