<svg width="20" height="15" viewBox="0 0 20 15" fill="none" xmlns="http://www.w3.org/2000/svg">
<path d="M10.0637 0.498779H10.175C11.2025 0.502529 16.4088 0.54003 17.8125 0.917529C18.2369 1.03274 18.6236 1.25731 18.9339 1.56879C19.2443 1.88027 19.4675 2.26776 19.5812 2.69253C19.7075 3.16753 19.7962 3.79628 19.8563 4.44503L19.8688 4.57503L19.8962 4.90003L19.9062 5.03003C19.9875 6.17253 19.9975 7.24253 19.9987 7.47628V7.57003C19.9975 7.81253 19.9862 8.95503 19.8962 10.145L19.8862 10.2763L19.875 10.4063C19.8125 11.1213 19.72 11.8313 19.5812 12.3538C19.4679 12.7787 19.2448 13.1664 18.9344 13.4779C18.6239 13.7895 18.237 14.0139 17.8125 14.1288C16.3625 14.5188 10.8512 14.5463 10.0875 14.5475H9.91C9.52375 14.5475 7.92625 14.54 6.25125 14.4825L6.03875 14.475L5.93 14.47L5.71625 14.4613L5.5025 14.4525C4.115 14.3913 2.79375 14.2925 2.185 14.1275C1.76061 14.0128 1.37383 13.7885 1.06341 13.4772C0.752979 13.1659 0.529809 12.7785 0.41625 12.3538C0.2775 11.8325 0.185 11.1213 0.1225 10.4063L0.1125 10.275L0.1025 10.145C0.0408095 9.29803 0.00662483 8.44925 0 7.60003L0 7.44628C0.0025 7.17753 0.0125 6.24878 0.08 5.22378L0.08875 5.09503L0.0925 5.03003L0.1025 4.90003L0.13 4.57503L0.1425 4.44503C0.2025 3.79628 0.29125 3.16628 0.4175 2.69253C0.530867 2.26759 0.753953 1.87992 1.06439 1.56838C1.37483 1.25685 1.76171 1.03239 2.18625 0.917529C2.795 0.755029 4.11625 0.655029 5.50375 0.592529L5.71625 0.583779L5.93125 0.576279L6.03875 0.572529L6.2525 0.56378C7.44213 0.525498 8.63226 0.504245 9.8225 0.500029H10.0637V0.498779ZM8 4.51128V10.5338L13.1962 7.52378L8 4.51128Z" fill="#2CAEE2"/>
</svg>
